<?xml version="1.0" encoding="utf-8"?>
<!-- Generator: Adobe Illustrator 16.0.0, SVG Export Plug-In . SVG Version: 6.00 Build 0)  -->
<!DOCTYPE svg PUBLIC "-//W3C//DTD SVG 1.1//EN" "http://www.w3.org/Graphics/SVG/1.1/DTD/svg11.dtd">
<svg version="1.1"
	 id="Layer_1" xmlns:dc="http://purl.org/dc/elements/1.1/" xmlns:cc="http://creativecommons.org/ns#" xmlns:rdf="http://www.w3.org/1999/02/22-rdf-syntax-ns#" xmlns:svg="http://www.w3.org/2000/svg" xmlns:sodipodi="http://sodipodi.sourceforge.net/DTD/sodipodi-0.dtd" xmlns:inkscape="http://www.inkscape.org/namespaces/inkscape"
	 xmlns="http://www.w3.org/2000/svg" xmlns:xlink="http://www.w3.org/1999/xlink" x="0px" y="0px" width="400px" height="363px"
	 viewBox="275.5 46.5 400 363" enable-background="new 275.5 46.5 400 363" xml:space="preserve">
<g transform="translate(0,-952.36218)">
	<path fill="#FFFFFF" d="M587.52,1006.123c7.723-0.045,13.293,7.785,13.44,13.44v76.16h49.28c7.464,0,13.292,7.776,13.439,13.44
		v192.641c0,24.074-19.371,43.84-43.26,44.66c-0.51,0.076-1.024,0.121-1.54,0.139H341.12c-24.587,0-44.8-20.213-44.8-44.801
		v-282.239c0.001-7.037,6.403-13.439,13.44-13.44L587.52,1006.123L587.52,1006.123z M574.08,1033.003H323.2v268.8
		c0,10.16,7.76,17.92,17.92,17.92H578c-2.458-5.527-3.92-11.522-3.92-17.92V1033.003z M542.72,1050.923
		c7.318,0.26,13.293,7.776,13.44,13.44v62.72c-0.001,7.038-6.403,13.439-13.44,13.44h-89.6c-7.037-0.001-13.439-6.403-13.44-13.44
		v-62.72c0.001-7.037,6.403-13.439,13.44-13.44H542.72z M408.32,1059.883c7.422,0,13.439,6.018,13.439,13.44
		c0,7.423-6.018,13.44-13.439,13.44h-53.76c-7.423,0-13.44-6.017-13.44-13.44c0-7.422,6.017-13.44,13.44-13.44H408.32z
		 M529.28,1077.803H466.56v35.84h62.721V1077.803z M408.32,1104.683c7.422,0,13.439,6.018,13.439,13.44
		c0,7.423-6.018,13.44-13.439,13.44h-53.76c-7.423,0-13.44-6.017-13.44-13.44c0-7.422,6.017-13.44,13.44-13.44H408.32z
		 M636.8,1122.603h-35.84v179.201c0,10.16,7.76,17.92,17.92,17.92s17.92-7.76,17.92-17.92V1122.603L636.8,1122.603z
		 M542.72,1158.443c7.423,0,13.44,6.018,13.44,13.44c0,7.423-6.018,13.44-13.44,13.44H354.56c-7.423,0-13.44-6.017-13.44-13.44
		c0-7.422,6.017-13.44,13.44-13.44H542.72z M444.16,1203.243c7.317,0.26,13.293,7.776,13.439,13.44v62.72
		c0,7.037-6.402,13.438-13.439,13.439h-89.6c-7.037-0.001-13.439-6.402-13.44-13.439v-62.72c0-7.038,6.403-13.439,13.44-13.44
		H444.16z M542.72,1212.203c7.423,0,13.44,6.018,13.44,13.44c0,7.423-6.018,13.44-13.44,13.44h-53.76
		c-7.423,0-13.44-6.017-13.44-13.44c0-7.422,6.018-13.44,13.44-13.44H542.72z M430.72,1230.123H368v35.841h62.72V1230.123z
		 M542.72,1257.003c7.423,0,13.44,6.018,13.44,13.44s-6.018,13.439-13.44,13.439h-53.76c-7.423,0-13.44-6.017-13.44-13.44
		c0-7.422,6.018-13.439,13.44-13.439H542.72L542.72,1257.003z"/>
</g>
</svg>
