<svg version="1.1" xmlns="http://www.w3.org/2000/svg" xmlns:xlink="http://www.w3.org/1999/xlink" x="0px" y="0px" viewBox="0 0 48 48" xml:space="preserve" width="48" height="48"><g class="nc-icon-wrapper" fill="#ffffff" transform="translate(0.5, 0.5)"><path d="M25,22V5a3,3,0,0,1,3-3h0a3,3,0,0,1,3,3V22" fill="none" stroke="#ffffff" stroke-linecap="square" stroke-miterlimit="10" stroke-width="3" stroke-linejoin="miter"></path> <path d="M31,7a3,3,0,0,1,3-3h0a3,3,0,0,1,3,3V22" fill="none" stroke="#ffffff" stroke-linecap="square" stroke-miterlimit="10" stroke-width="3" stroke-linejoin="miter"></path> <path d="M25,8V7a3,3,0,0,0-3-3h0a3,3,0,0,0-3,3V25.977a3,3,0,0,1-4.422,2.641L7.7,24.916a2.6,2.6,0,0,0-3.068.45h0a2.6,2.6,0,0,0-.2,3.446l8.512,10.782A16.84,16.84,0,0,0,26.16,46h0A16.84,16.84,0,0,0,43,29.16V10a3,3,0,0,0-3-3h0a3,3,0,0,0-3,3" fill="none" stroke="#ffffff" stroke-miterlimit="10" stroke-width="3" data-cap="butt" stroke-linecap="butt" stroke-linejoin="miter"></path></g></svg>