<?xml version="1.0" encoding="utf-8"?>
<!-- Generator: Adobe Illustrator 16.0.0, SVG Export Plug-In . SVG Version: 6.00 Build 0)  -->
<!DOCTYPE svg PUBLIC "-//W3C//DTD SVG 1.1//EN" "http://www.w3.org/Graphics/SVG/1.1/DTD/svg11.dtd">
<svg version="1.1" id="Layer_1" xmlns="http://www.w3.org/2000/svg" xmlns:xlink="http://www.w3.org/1999/xlink" x="0px" y="0px"
	 width="190px" height="142px" viewBox="0 0 190 142" enable-background="new 0 0 190 142" xml:space="preserve">
<g transform="translate(0, 0)">
	<path fill="none" stroke="#171717" stroke-width="2" stroke-linecap="square" stroke-miterlimit="10" d="M96,4.028
		c-16.568,0-30,13.431-30,30v22c0,0,8,8,30,8s30-8,30-8v-22C126,17.459,112.568,4.028,96,4.028z"/>
	<path fill="none" stroke="#171717" stroke-width="2" stroke-linecap="square" stroke-miterlimit="10" d="M105.738,14.323
		C100.253,21.431,91.673,26.028,82,26.028c-2.137,0-4.217-0.231-6.227-0.656C74.635,28.029,74,30.954,74,34.028
		c0,12.15,9.85,22,22,22s22-9.85,22-22C118,25.379,112.997,17.918,105.738,14.323z"/>
	
		<circle fill="none" stroke="#171717" stroke-width="2" stroke-linecap="square" stroke-miterlimit="10" cx="86" cy="36.028" r="2"/>
	
		<circle fill="none" stroke="#171717" stroke-width="2" stroke-linecap="square" stroke-miterlimit="10" cx="106" cy="36.028" r="2"/>
</g>
<g transform="translate(0, 0)">
	<path fill="none" stroke="#171717" stroke-width="2" stroke-linecap="square" stroke-miterlimit="10" d="M156,77.295
		c-16.568,0-30,13.431-30,30v22c0,0,8,8,30,8s30-8,30-8v-22C186,90.726,172.568,77.295,156,77.295z"/>
	<path fill="none" stroke="#171717" stroke-width="2" stroke-linecap="square" stroke-miterlimit="10" d="M165.738,87.59
		c-5.485,7.108-14.065,11.705-23.738,11.705c-2.137,0-4.217-0.231-6.227-0.656c-1.139,2.657-1.773,5.582-1.773,8.656
		c0,12.15,9.85,22,22,22s22-9.85,22-22C178,98.646,172.997,91.185,165.738,87.59z"/>
	
		<circle fill="none" stroke="#171717" stroke-width="2" stroke-linecap="square" stroke-miterlimit="10" cx="146" cy="109.295" r="2"/>
	
		<circle fill="none" stroke="#171717" stroke-width="2" stroke-linecap="square" stroke-miterlimit="10" cx="166" cy="109.295" r="2"/>
</g>
<g transform="translate(0, 0)">
	<path fill="none" stroke="#171717" stroke-width="2" stroke-linecap="square" stroke-miterlimit="10" d="M36,77.295
		c-16.568,0-30,13.431-30,30v22c0,0,8,8,30,8s30-8,30-8v-22C66,90.726,52.568,77.295,36,77.295z"/>
	<path fill="none" stroke="#171717" stroke-width="2" stroke-linecap="square" stroke-miterlimit="10" d="M45.738,87.59
		C40.253,94.698,31.673,99.295,22,99.295c-2.137,0-4.217-0.231-6.227-0.656c-1.139,2.657-1.773,5.582-1.773,8.656
		c0,12.15,9.85,22,22,22s22-9.85,22-22C58,98.646,52.997,91.185,45.738,87.59z"/>
	
		<circle fill="none" stroke="#171717" stroke-width="2" stroke-linecap="square" stroke-miterlimit="10" cx="26" cy="109.295" r="2"/>
	
		<circle fill="none" stroke="#171717" stroke-width="2" stroke-linecap="square" stroke-miterlimit="10" cx="46" cy="109.295" r="2"/>
</g>
<g transform="translate(0.5, 0.5)">
	<polygon fill="none" stroke="#D33673" stroke-width="3" stroke-linecap="square" stroke-miterlimit="10" points="99.042,77.961 
		81.031,97.835 94.073,97.835 91.589,110.256 109.6,90.382 96.558,90.382 	"/>
</g>
</svg>
